<?xml version="1.0" standalone="no"?>
<!DOCTYPE svg PUBLIC "-//W3C//DTD SVG 20010904//EN"
        "http://www.w3.org/TR/2001/REC-SVG-20010904/DTD/svg10.dtd">
<svg version="1.0" xmlns="http://www.w3.org/2000/svg"
     width="512.000000pt" height="512.000000pt" viewBox="0 0 512.000000 512.000000"
     preserveAspectRatio="xMidYMid meet">

    <g transform="translate(0.000000,512.000000) scale(0.100000,-0.100000)"
       fill="#000000" stroke="none">
        <path d="M1553 4620 c-86 -23 -121 -40 -191 -93 -106 -81 -189 -230 -247 -445
-29 -104 -102 -485 -210 -1089 l-17 -93 -247 0 c-135 0 -273 -4 -305 -10 -275
-45 -421 -356 -280 -595 37 -64 125 -140 192 -167 l57 -23 2255 0 2255 0 57
23 c67 27 155 103 192 167 141 239 -5 550 -280 595 -32 6 -170 10 -305 10
l-247 0 -17 93 c-97 544 -180 973 -205 1070 -85 332 -219 499 -446 557 -98 25
-190 25 -286 1 -109 -28 -184 -70 -299 -167 -220 -184 -333 -234 -475 -212
-101 16 -191 69 -366 215 -58 49 -132 101 -163 116 -132 65 -287 82 -422 47z
m276 -310 c25 -12 87 -58 139 -102 204 -171 356 -249 521 -267 216 -23 413 57
662 266 116 98 165 124 245 131 162 13 252 -80 319 -328 21 -80 115 -552 115
-581 0 -5 -495 -9 -1270 -9 -775 0 -1270 4 -1270 9 0 28 93 500 115 581 47
177 114 282 200 315 58 22 168 15 224 -15z m2061 -1202 c1 -7 9 -57 19 -110
l18 -98 -1367 0 -1367 0 18 98 c10 53 18 103 19 110 0 18 2660 18 2660 0z
m902 -547 c26 -29 30 -39 25 -75 -4 -27 -15 -49 -32 -63 l-26 -23 -2199 0
-2199 0 -26 23 c-38 32 -44 93 -15 130 13 16 32 33 44 37 11 5 1006 8 2209 7
l2189 -2 30 -34z"/>
        <path d="M1505 1935 c-156 -29 -271 -91 -385 -205 -96 -96 -148 -177 -187
-295 -25 -72 -27 -94 -27 -225 0 -137 1 -150 31 -233 43 -123 85 -189 183
-288 71 -72 101 -93 180 -132 128 -63 200 -81 335 -81 135 0 207 18 334 80 79
39 109 61 181 133 144 145 208 287 218 483 4 86 8 108 21 114 31 13 246 17
303 5 l55 -12 5 -107 c10 -196 73 -338 218 -483 72 -72 102 -94 181 -133 127
-62 199 -80 334 -80 135 0 207 18 335 81 79 39 109 60 180 132 98 99 140 165
183 288 30 83 32 96 31 233 0 130 -3 153 -27 225 -39 117 -91 199 -187 296
-72 72 -102 94 -181 133 -51 25 -121 53 -154 61 -294 74 -616 -47 -787 -297
-21 -32 -42 -58 -46 -58 -4 0 -42 7 -85 15 -99 19 -277 19 -382 0 -44 -8 -81
-15 -82 -15 -1 0 -20 26 -42 58 -163 237 -456 360 -736 307z m228 -300 c205
-53 337 -220 337 -425 0 -218 -153 -395 -374 -432 -107 -18 -238 17 -333 89
-134 102 -196 305 -143 474 67 218 299 350 513 294z m1850 0 c205 -53 337
-220 337 -425 0 -129 -67 -270 -163 -343 -95 -72 -229 -108 -337 -89 -219 39
-370 215 -370 432 0 281 267 494 533 425z"/>
    </g>
</svg>
